<svg preserveAspectRatio="none" width="100%" height="100%" overflow="visible" style="display: block;" viewBox="0 0 25 16" fill="none" xmlns="http://www.w3.org/2000/svg">
<path id="Vector" d="M7.27194 0C7.99315 0 8.66018 0.0571428 9.26966 0.226286C9.88026 0.339428 10.3803 0.565714 10.8238 0.848C11.2685 1.13067 11.6015 1.52648 11.8227 2.03543C12.045 2.544 12.1568 3.16686 12.1568 3.84457C12.1568 4.63657 11.9897 5.31428 11.6015 5.82285C11.2685 6.33257 10.7132 6.784 10.0473 7.12343C10.9909 7.40685 11.7121 7.91543 12.1568 8.59314C12.6015 9.27085 12.878 10.12 12.878 11.0811C12.878 11.8731 12.7109 12.5509 12.4333 13.1166C12.1568 13.6823 11.7121 14.1908 11.2121 14.5303C10.6687 14.8937 10.0684 15.1611 9.4367 15.3211C8.77079 15.4914 8.10489 15.6046 7.43898 15.6046H0V0H7.27194ZM6.82725 6.33143C7.43785 6.33143 7.93784 6.16228 8.3261 5.88C8.71436 5.59771 8.8814 5.088 8.8814 4.46628C8.8814 4.12686 8.82497 3.78743 8.71436 3.56228C8.60375 3.33714 8.43671 3.16571 8.21549 2.99657C7.98931 2.86794 7.74604 2.77287 7.49315 2.71428C7.2155 2.65714 6.93898 2.65714 6.6049 2.65714H3.38597V6.33257L6.82725 6.33143ZM6.99429 13.0034C7.32724 13.0034 7.66019 12.9463 7.93784 12.8903C8.21549 12.8331 8.49314 12.7211 8.71436 12.5509C8.93964 12.3844 9.12866 12.1728 9.26966 11.9291C9.38027 11.6469 9.492 11.3074 9.492 10.912C9.492 10.12 9.26966 9.55428 8.8261 9.15885C8.38141 8.81942 7.7708 8.65028 7.04959 8.65028H3.38597V13.0046L6.99429 13.0034ZM17.7075 12.9463C18.1514 13.3988 18.8173 13.6251 19.7052 13.6251C20.3158 13.6251 20.8711 13.456 21.3147 13.1737C21.7594 12.8339 22.037 12.4945 22.1476 12.1554H24.8677C24.423 13.512 23.7571 14.4731 22.87 15.0949C21.9806 15.6606 20.9264 16 19.6499 16C18.8333 16.0012 18.0237 15.8477 17.2628 15.5474C16.5779 15.2888 15.9673 14.8614 15.4863 14.304C14.9697 13.7844 14.5885 13.1431 14.3768 12.4377C14.0992 11.7029 13.9874 10.912 13.9874 10.0069C13.9874 9.15885 14.0992 8.368 14.3768 7.632C14.6432 6.92296 15.0387 6.27089 15.5427 5.70971C16.0416 5.20114 16.6522 4.74971 17.3181 4.46628C18.0594 4.16492 18.8511 4.01125 19.6499 4.01371C20.5935 4.01371 21.4264 4.184 22.1476 4.57943C22.87 4.97486 23.4241 5.42743 23.8677 6.10628C24.3124 6.728 24.6465 7.46285 24.8677 8.25485C24.9783 9.04571 25.0336 9.83771 24.9783 10.7417H16.9299C16.9299 11.6469 17.2628 12.4949 17.7075 12.9474M21.2041 7.01142C20.8158 6.616 20.2052 6.38971 19.4829 6.38971C19.0593 6.38328 18.6405 6.4801 18.2617 6.672C17.9287 6.84228 17.7075 7.06857 17.4852 7.29485C17.2796 7.51253 17.1442 7.78834 17.0969 8.08571C17.0405 8.36914 16.9852 8.59428 16.9852 8.82057H21.9806C21.87 7.97257 21.5923 7.408 21.2041 7.01142ZM16.3192 1.07429H22.5359V2.60114H16.3204L16.3192 1.07429Z" fill="var(--fill-0, white)"/>
</svg>
