<svg width="18" height="12" viewBox="0 0 18 12" fill="none" xmlns="http://www.w3.org/2000/svg">
<path d="M1.616 12C1.15533 12 0.771 11.846 0.463 11.538C0.155 11.23 0.000666667 10.8453 0 10.384V1.616C0 1.15533 0.154333 0.771 0.463 0.463C0.771667 0.155 1.15567 0.000666667 1.615 0H16.385C16.845 0 17.229 0.154333 17.537 0.463C17.845 0.771666 17.9993 1.156 18 1.616V10.385C18 10.845 17.8457 11.2293 17.537 11.538C17.2283 11.8467 16.8443 12.0007 16.385 12H1.616ZM5.231 9.77H12.769V8.23H5.231V9.77ZM2.231 6.77H3.769V5.23H2.231V6.77ZM5.231 6.77H6.769V5.23H5.231V6.77ZM8.231 6.77H9.769V5.23H8.231V6.77ZM11.231 6.77H12.769V5.23H11.231V6.77ZM14.231 6.77H15.769V5.23H14.231V6.77ZM2.231 3.77H3.769V2.23H2.231V3.77ZM5.231 3.77H6.769V2.23H5.231V3.77ZM8.231 3.77H9.769V2.23H8.231V3.77ZM11.231 3.77H12.769V2.23H11.231V3.77ZM14.231 3.77H15.769V2.23H14.231V3.77Z" fill="white"/>
</svg>
