<svg preserveAspectRatio="none" width="100%" height="100%" overflow="visible" style="display: block;" viewBox="0 0 11 12" fill="none" xmlns="http://www.w3.org/2000/svg">
<path d="M6.60046 0.75C6.60046 0.335156 6.27279 0 5.86721 0C5.46163 0 5.13395 0.335156 5.13395 0.75V5.625C5.13395 5.83125 4.96897 6 4.76733 6C4.56568 6 4.4007 5.83125 4.4007 5.625V1.5C4.4007 1.08516 4.07302 0.75 3.66744 0.75C3.26186 0.75 2.93419 1.08516 2.93419 1.5V7.875C2.93419 7.91016 2.93419 7.94766 2.93648 7.98281L1.55017 6.63281C1.18354 6.27656 0.603807 6.29062 0.253219 6.66562C-0.0973694 7.04062 -0.0813294 7.63359 0.285299 7.99219L2.86086 10.5C3.84846 11.4633 5.16145 12 6.52714 12H6.96709C9.19436 12 11 10.1531 11 7.875V3C11 2.58516 10.6723 2.25 10.2667 2.25C9.86116 2.25 9.53349 2.58516 9.53349 3V5.625C9.53349 5.83125 9.36851 6 9.16686 6C8.96522 6 8.80023 5.83125 8.80023 5.625V1.5C8.80023 1.08516 8.47256 0.75 8.06698 0.75C7.66139 0.75 7.33372 1.08516 7.33372 1.5V5.625C7.33372 5.83125 7.16874 6 6.96709 6C6.76545 6 6.60046 5.83125 6.60046 5.625V0.75Z" fill="white"/>
</svg>
