<svg preserveAspectRatio="none" width="100%" height="100%" overflow="visible" style="display: block;" viewBox="0 0 85 64" fill="none" xmlns="http://www.w3.org/2000/svg">
<path id="&#226;&#128;&#156;" d="M30.0285 0L34.6296 8.24242C32.0465 11.798 29.6249 15.7576 27.3647 20.1212C25.2659 24.4849 24.0551 29.0101 23.7322 33.697L37.0513 36.1212V64H0V44.1212C0 32.6465 2.66382 23.4343 7.99145 16.4849C13.4805 9.37374 20.8262 3.87879 30.0285 0ZM77.9772 0L82.5784 8.24242C79.9953 11.798 77.5736 15.7576 75.3134 20.1212C73.2146 24.4849 72.0038 29.0101 71.6809 33.697L85 36.1212V64H47.9487V44.1212C47.9487 32.6465 50.6125 23.4343 55.9402 16.4849C61.4293 9.37374 68.7749 3.87879 77.9772 0Z" fill="var(--fill-0, white)"/>
</svg>
