<svg preserveAspectRatio="none" width="100%" height="100%" overflow="visible" style="display: block;" viewBox="0 0 256 227" fill="none" xmlns="http://www.w3.org/2000/svg">
<g id="Group 5">
<path id="Vector" fill-rule="evenodd" clip-rule="evenodd" d="M243.135 69.4776C244.017 65.4948 244.899 61.5313 245.781 57.5485C244.17 54.2006 242.56 50.8528 240.949 47.5049C240.067 51.4877 239.185 55.4513 238.322 59.4341C239.933 62.7819 241.543 66.1298 243.154 69.4776H243.135ZM216.887 40.4821C220.856 41.3287 224.844 42.1945 228.812 43.0411C226.454 40.1743 224.077 37.3267 221.718 34.4598C217.75 33.6132 213.762 32.7474 209.793 31.9008C212.151 34.7677 214.528 37.6153 216.887 40.4821ZM246.739 118.426C244.381 115.097 242.042 111.768 239.684 108.44C239.492 112.153 239.3 115.867 239.108 119.58C241.448 122.909 243.806 126.237 246.145 129.566C246.337 125.852 246.528 122.139 246.72 118.426H246.739ZM229.733 42.2907C229.637 38.2117 229.541 34.152 229.426 30.073C227.068 27.2061 224.69 24.3585 222.332 21.4917C222.428 25.5707 222.524 29.6304 222.62 33.7094C224.978 36.5763 227.355 39.4239 229.714 42.2907H229.733ZM238.61 43.4836C236.673 40.309 234.756 37.1343 232.82 33.9596C232.34 38.0001 231.842 42.0406 231.362 46.0811C233.299 49.2558 235.216 52.4305 237.153 55.6052C237.632 51.5647 238.131 47.5242 238.61 43.4644V43.4836ZM247.18 103.514C244.496 100.436 241.831 97.3764 239.166 94.2979C239.358 98.0114 239.53 101.725 239.722 105.438C242.406 108.517 245.071 111.576 247.736 114.654C247.564 110.941 247.372 107.228 247.18 103.514ZM246.854 84.3121C248.312 80.5025 249.769 76.7121 251.226 72.9024C250.133 69.3622 249.021 65.8027 247.928 62.2624C246.471 66.072 245.014 69.8624 243.557 73.6721C244.669 77.2123 245.762 80.7718 246.874 84.3121H246.854ZM245.742 88.5835C242.636 85.9475 239.53 83.3308 236.424 80.6949C237.172 84.3313 237.901 87.9678 238.648 91.6043C241.754 94.2402 244.86 96.8762 247.966 99.4929C247.219 95.8564 246.471 92.2199 245.742 88.5642V88.5835ZM224.69 51.988C228.506 53.4118 232.302 54.8356 236.117 56.2401C234.181 53.0654 232.264 49.8907 230.327 46.7161C226.512 45.2923 222.696 43.8877 218.9 42.4639C220.817 45.6386 222.754 48.8133 224.69 51.9687V51.988ZM200.014 12.5833L191.847 2.9438L179.557 0L187.724 9.63952L199.995 12.5641L200.014 12.5833ZM210.157 18.8942C208.911 15.0076 207.664 11.1403 206.418 7.25369C203.331 5.17571 200.264 3.09773 197.177 1.03899C198.423 4.90634 199.669 8.79293 200.916 12.6795C203.983 14.7575 207.07 16.8162 210.157 18.8942ZM181.455 212.589C183.065 208.856 184.676 205.104 186.306 201.372C183.046 203.142 179.768 204.893 176.508 206.663C174.898 210.395 173.287 214.147 171.657 217.88C174.917 216.11 178.176 214.359 181.455 212.589ZM220.683 29.9768C220.012 25.9555 219.322 21.9535 218.651 17.9322C215.909 15.4309 213.148 12.9489 210.406 10.4476C211.077 14.4689 211.768 18.4709 212.439 22.4922C215.18 24.9935 217.941 27.4755 220.683 29.9768ZM208.393 184.171C205.651 186.672 202.89 189.154 200.149 191.655C199.478 195.676 198.787 199.698 198.116 203.7C200.858 201.198 203.619 198.716 206.361 196.215C207.032 192.194 207.722 188.173 208.393 184.151V184.171ZM211.633 23.3965C207.569 23.1271 203.523 22.8385 199.458 22.5692C202.2 25.0704 204.961 27.5525 207.703 30.0537C211.768 30.3231 215.813 30.6117 219.878 30.8811C217.136 28.3798 214.375 25.8978 211.633 23.3965ZM194.397 205.22C195.643 201.333 196.889 197.466 198.135 193.579C195.068 195.657 191.981 197.735 188.913 199.794C187.667 203.68 186.421 207.548 185.174 211.434C188.261 209.356 191.329 207.278 194.416 205.22H194.397ZM209.486 19.8755C206.418 17.7975 203.331 15.7388 200.244 13.6608C196.199 13.9686 192.134 14.2765 188.089 14.5843C191.176 16.6623 194.243 18.7211 197.33 20.799C201.376 20.4912 205.44 20.1833 209.486 19.8755ZM210.023 194.387C212.381 191.52 214.759 188.654 217.117 185.806C217.213 181.727 217.309 177.648 217.404 173.588C215.046 176.455 212.669 179.322 210.31 182.17C210.215 186.249 210.119 190.308 210.023 194.387ZM248.925 114.577C251.283 111.249 253.642 107.939 256 104.611C255.827 100.897 255.636 97.184 255.444 93.4706C253.086 96.7992 250.727 100.109 248.369 103.437C248.561 107.151 248.733 110.864 248.925 114.577ZM198.922 204.604C202.986 204.335 207.032 204.046 211.096 203.777C213.838 201.275 216.599 198.793 219.341 196.292C215.276 196.561 211.231 196.85 207.166 197.119C204.424 199.621 201.663 202.103 198.922 204.604ZM221.124 183.997C224.997 182.766 228.87 181.535 232.743 180.284C234.814 177.205 236.904 174.127 238.974 171.048C235.101 172.28 231.228 173.511 227.355 174.762C225.285 177.84 223.195 180.919 221.124 183.997ZM210.943 195.138C214.912 194.291 218.9 193.425 222.869 192.579C225.227 189.712 227.605 186.845 229.963 183.997C225.994 184.844 222.006 185.71 218.037 186.576C215.679 189.442 213.301 192.309 210.943 195.157V195.138ZM185.845 212.435C189.891 212.743 193.956 213.051 198.001 213.358C201.088 211.28 204.156 209.222 207.223 207.144C203.178 206.836 199.113 206.528 195.068 206.22C192 208.298 188.913 210.376 185.845 212.435ZM230.365 171.837C234.028 170.048 237.67 168.278 241.333 166.488C242.943 163.141 244.554 159.793 246.183 156.445C242.521 158.234 238.878 160.004 235.216 161.794C233.606 165.142 231.995 168.489 230.385 171.837H230.365ZM243.307 144.4C246.413 141.784 249.519 139.148 252.645 136.531C253.392 132.894 254.14 129.258 254.888 125.622C251.782 128.238 248.676 130.874 245.57 133.491C244.822 137.127 244.074 140.764 243.327 144.4H243.307ZM172.232 218.938C176.24 219.631 180.247 220.343 184.254 221.035C187.513 219.265 190.773 217.514 194.052 215.744C190.044 215.052 186.037 214.34 182.03 213.647C178.771 215.417 175.511 217.168 172.232 218.938ZM247.353 129.624C250.037 126.564 252.702 123.505 255.386 120.427C255.578 116.713 255.77 113 255.962 109.286C253.277 112.346 250.593 115.405 247.928 118.483C247.736 122.197 247.545 125.91 247.353 129.624ZM237.46 158.523C240.93 156.387 244.381 154.251 247.851 152.116C249.136 148.633 250.401 145.131 251.686 141.649C248.216 143.785 244.765 145.92 241.294 148.037C240.01 151.519 238.725 155.002 237.46 158.504V158.523ZM240.163 147.633C238.898 143.765 237.651 139.879 236.386 136.011C235.101 139.494 233.836 142.977 232.551 146.478C233.817 150.346 235.063 154.232 236.328 158.1C237.613 154.617 238.878 151.115 240.163 147.633ZM245.723 84.6584C244.611 81.1182 243.518 77.5587 242.406 74.0184C239.051 71.7095 235.696 69.4007 232.34 67.0918C233.452 70.6321 234.545 74.1916 235.638 77.7318C238.993 80.0407 242.349 82.3495 245.704 84.6584H245.723ZM234.123 161.274C233.241 157.291 232.379 153.309 231.497 149.345C229.886 152.693 228.256 156.041 226.665 159.389C227.547 163.371 228.41 167.354 229.292 171.318C230.902 167.97 232.513 164.622 234.123 161.294V161.274ZM219.264 171.145C219.552 175.204 219.839 179.264 220.146 183.343C222.236 180.265 224.307 177.186 226.377 174.108C226.09 170.048 225.783 165.988 225.496 161.909C223.425 164.988 221.335 168.066 219.264 171.145ZM244.381 133.241C242.56 129.604 240.738 125.949 238.917 122.312C238.169 125.949 237.421 129.585 236.673 133.222C238.495 136.858 240.316 140.514 242.138 144.15C242.886 140.514 243.633 136.877 244.381 133.241ZM174.016 207.836C170.526 209.106 167.037 210.376 163.566 211.646C161.419 215.109 159.271 218.573 157.143 222.036C160.633 220.766 164.122 219.496 167.593 218.246C169.74 214.782 171.887 211.319 174.035 207.856L174.016 207.836ZM157.527 223.152C161.38 224.441 165.253 225.711 169.107 227C172.597 225.73 176.086 224.46 179.557 223.19C175.703 221.901 171.83 220.631 167.976 219.342C164.487 220.612 160.997 221.882 157.527 223.133V223.152ZM242.061 69.9971C240.451 66.6493 238.84 63.3014 237.229 59.9535C233.567 58.1642 229.925 56.394 226.262 54.6047C227.873 57.9525 229.484 61.3004 231.094 64.6482C234.756 66.4376 238.399 68.2077 242.061 69.9971ZM249.136 99.262C250.957 95.6255 252.798 91.9891 254.62 88.3526C253.872 84.7161 253.143 81.0604 252.395 77.424C250.574 81.0604 248.753 84.6969 246.912 88.3334C247.66 91.9698 248.388 95.6063 249.136 99.262ZM70.8256 211.434C69.5794 207.548 68.3331 203.68 67.0869 199.794C64.0192 197.716 60.9323 195.638 57.8646 193.579C59.1108 197.466 60.3571 201.333 61.6034 205.22C64.6902 207.298 67.7579 209.356 70.8448 211.434H70.8256ZM84.3235 217.88C82.713 214.147 81.1025 210.395 79.4727 206.663C76.2133 204.893 72.9539 203.122 69.6753 201.372C71.2858 205.104 72.8963 208.856 74.5261 212.589C77.7855 214.359 81.0449 216.129 84.3235 217.88ZM57.8646 203.7C57.1935 199.678 56.5033 195.657 55.8322 191.655C53.0905 189.154 50.3295 186.672 47.5878 184.171C48.2588 188.192 48.9491 192.213 49.6201 196.234C52.3619 198.736 55.1228 201.218 57.8646 203.719V203.7ZM68.2564 9.63952L76.4242 0L64.1534 2.9438L55.9856 12.5833L68.2564 9.65876V9.63952ZM36.1031 30.8811C40.1678 30.6117 44.2133 30.3231 48.278 30.0537C51.0198 27.5525 53.7807 25.0704 56.5225 22.5692C52.4578 22.8385 48.4122 23.1271 44.3475 23.3965C41.6057 25.8978 38.8448 28.3798 36.1031 30.8811ZM67.9113 14.6036C63.8658 14.2957 59.8011 13.9879 55.7555 13.68C52.6687 15.758 49.601 17.8167 46.5141 19.8947C50.5788 20.2026 54.6243 20.5104 58.6699 20.8183C61.7376 18.7403 64.8244 16.6623 67.9113 14.6036ZM7.61174 103.456C5.25345 100.128 2.89515 96.8184 0.536848 93.4898C0.36429 97.2033 0.191732 100.917 0 104.611C2.3583 107.939 4.7166 111.249 7.0749 114.577C7.26663 110.864 7.43919 107.151 7.63092 103.437L7.61174 103.456ZM10.4494 133.491C7.34332 130.874 4.21809 128.238 1.11204 125.622C1.8598 129.258 2.60755 132.894 3.3553 136.531C6.46135 139.148 9.56741 141.784 12.6926 144.4C11.9449 140.764 11.1971 137.127 10.4494 133.491ZM24.6375 46.1004C24.1582 42.0598 23.6597 38.0193 23.1803 33.9788C21.2439 37.1535 19.3265 40.3282 17.3901 43.5029C17.8694 47.5434 18.3679 51.5839 18.8472 55.6437C20.7645 52.469 22.701 49.2943 24.6375 46.1196V46.1004ZM14.6866 148.056C11.2163 145.92 7.76513 143.785 4.29479 141.668C5.57939 145.151 6.84482 148.633 8.12942 152.135C11.5998 154.271 15.0509 156.406 18.5213 158.542C17.2367 155.06 15.9712 151.558 14.6866 148.075V148.056ZM17.6968 59.4341C16.8149 55.4513 15.9329 51.4685 15.0701 47.5049C13.4596 50.8528 11.849 54.2006 10.2385 57.5485C11.1204 61.5313 12.0024 65.4948 12.8652 69.4776C14.4757 66.1298 16.0863 62.7819 17.6968 59.4341ZM9.0689 88.3334C7.24745 84.6969 5.40683 81.0604 3.58538 77.424C2.83763 81.0604 2.10905 84.7161 1.36129 88.3526C3.18274 91.9891 5.02337 95.6255 6.84482 99.262C7.59257 95.6255 8.32115 91.9891 9.0689 88.3334ZM20.7837 161.794C17.1216 160.004 13.4787 158.234 9.81666 156.445C11.4272 159.793 13.0377 163.141 14.6483 166.488C18.3104 168.278 21.9533 170.048 25.6153 171.837C24.0048 168.489 22.3942 165.142 20.7837 161.794ZM12.4434 73.6721C10.9862 69.8624 9.52906 66.072 8.0719 62.2624C6.95986 65.8027 5.86699 69.3622 4.77412 72.9024C6.23128 76.7121 7.68844 80.5217 9.1456 84.3121C10.2576 80.7718 11.3505 77.2123 12.4626 73.6721H12.4434ZM8.05273 118.503C5.36848 115.443 2.68424 112.365 0.0191732 109.306C0.210905 113.019 0.402636 116.732 0.594368 120.446C3.27861 123.505 5.94368 126.584 8.62792 129.643C8.43619 125.929 8.24446 122.216 8.05273 118.503ZM76.4242 223.19C79.9137 224.46 83.4032 225.73 86.8927 227C90.7466 225.711 94.6195 224.441 98.4733 223.152C94.9838 221.882 91.5135 220.612 88.024 219.361C84.1702 220.651 80.2972 221.92 76.4434 223.21L76.4242 223.19ZM28.6255 174.781C24.7525 173.55 20.8796 172.318 17.0066 171.068C19.0773 174.146 21.1672 177.225 23.2379 180.303C27.1108 181.535 30.9838 182.766 34.8568 184.017C32.7861 180.938 30.6962 177.86 28.6255 174.781ZM81.9652 207.836C84.1126 211.3 86.26 214.763 88.4074 218.226C91.8969 219.496 95.3865 220.747 98.8568 222.017C96.7094 218.553 94.562 215.09 92.4146 211.627C88.9251 210.357 85.4356 209.087 81.9652 207.817V207.836ZM73.97 213.647C69.9629 214.34 65.9557 215.052 61.9485 215.744C65.2079 217.514 68.4673 219.265 71.7268 221.035C75.734 220.343 79.7412 219.631 83.7484 218.938C80.4889 217.168 77.2295 215.398 73.97 213.647ZM37.9437 186.556C33.9748 185.691 29.9868 184.844 26.018 183.978C28.3763 186.845 30.7537 189.712 33.112 192.559C37.0809 193.406 41.0689 194.272 45.0377 195.118C42.6794 192.252 40.302 189.404 37.9437 186.537V186.556ZM60.9131 206.201C56.8484 206.509 52.8029 206.817 48.7573 207.125C51.825 209.202 54.9119 211.28 57.9796 213.339C62.0252 213.031 66.0899 212.724 70.1354 212.416C67.0677 210.338 63.9808 208.279 60.9131 206.201ZM48.8149 197.119C44.7693 196.85 40.7046 196.561 36.6399 196.292C39.3817 198.793 42.1426 201.275 44.8844 203.777C48.9491 204.046 52.9946 204.335 57.0593 204.604C54.3176 202.103 51.5566 199.621 48.8149 197.119ZM19.3265 133.241C18.5788 129.604 17.831 125.968 17.0833 122.331C15.2618 125.968 13.4404 129.624 11.6189 133.26C12.3667 136.897 13.1144 140.533 13.8622 144.169C15.6836 140.533 17.5051 136.877 19.3265 133.241ZM33.6489 21.4917C31.2906 24.3585 28.9131 27.2061 26.5548 30.073C26.459 34.152 26.3631 38.2117 26.2481 42.2907C28.6063 39.4239 30.9838 36.5763 33.3421 33.7094C33.438 29.6304 33.5339 25.5707 33.6489 21.4917ZM23.6213 67.111C20.266 69.4199 16.9107 71.7288 13.5746 74.0376C12.4626 77.5779 11.3697 81.1374 10.2768 84.6777C13.6321 82.3688 16.9874 80.0792 20.3235 77.7511C21.4356 74.2108 22.5285 70.6513 23.6213 67.111ZM8.01438 99.4929C11.1204 96.8569 14.2265 94.2402 17.3325 91.6043C18.0803 87.9678 18.828 84.3313 19.5566 80.6949C16.4506 83.3308 13.3445 85.9475 10.2385 88.5835C9.49071 92.22 8.76213 95.8564 8.01438 99.5121V99.4929ZM31.3098 51.988C33.2463 48.8133 35.1636 45.6386 37.1001 42.4831C33.2846 43.9069 29.4691 45.3115 25.6537 46.7353C23.7172 49.91 21.7999 53.0847 19.8634 56.2594C23.6788 54.8356 27.4943 53.4118 31.2906 52.0072L31.3098 51.988ZM36.7358 171.145C34.6651 168.066 32.5752 164.988 30.5045 161.909C30.1977 165.969 29.9101 170.029 29.6225 174.108C31.7124 177.186 33.7831 180.265 35.8538 183.343C36.1414 179.283 36.4482 175.204 36.7358 171.145ZM39.1132 40.4821C41.4715 37.6153 43.849 34.7677 46.2073 31.9008C42.2385 32.7474 38.2504 33.6132 34.2816 34.4598C31.9233 37.3267 29.5458 40.1743 27.1875 43.0411C31.1564 42.1945 35.1444 41.3287 39.1132 40.4821ZM38.864 185.806C41.2223 188.673 43.5998 191.54 45.9581 194.387C45.8622 190.308 45.7663 186.249 45.6705 182.17C43.3122 179.303 40.9347 176.436 38.5764 173.588C38.6723 177.667 38.7681 181.727 38.864 185.806ZM45.5938 10.4476C42.852 12.9489 40.0911 15.4309 37.3493 17.9322C36.6591 21.9535 35.988 25.9555 35.317 29.9768C38.0587 27.4755 40.8197 24.9935 43.5614 22.4922C44.2325 18.4709 44.9227 14.4497 45.5938 10.4476ZM29.3349 159.389C27.7244 156.041 26.0947 152.693 24.4841 149.345C23.6022 153.328 22.7202 157.311 21.8574 161.274C23.4679 164.622 25.0785 167.97 26.7082 171.299C27.5902 167.316 28.453 163.352 29.3349 159.369V159.389ZM18.7705 59.9728C17.16 63.3206 15.5494 66.6685 13.9389 70.0164C17.601 68.227 21.2439 66.4376 24.9059 64.6675C26.5165 61.3196 28.127 57.9718 29.7376 54.6239C26.0755 56.4133 22.4326 58.2027 18.7705 59.9728ZM23.4488 146.478C22.1642 142.996 20.8796 139.513 19.6141 136.011C18.3487 139.879 17.0833 143.765 15.837 147.633C17.1216 151.115 18.4062 154.598 19.6717 158.1C20.9371 154.232 22.1833 150.346 23.4488 146.478ZM16.8724 119.58C16.6806 115.867 16.4889 112.153 16.2972 108.44C13.9581 111.768 11.5998 115.097 9.26063 118.426C9.45237 122.139 9.6441 125.852 9.83583 129.566C12.175 126.237 14.5333 122.909 16.8724 119.58ZM16.834 94.2979C14.169 97.3572 11.4847 100.436 8.81965 103.514C8.62792 107.228 8.45536 110.941 8.26363 114.654C10.9287 111.576 13.6129 108.517 16.278 105.438C16.4506 101.725 16.6423 98.0114 16.834 94.2979ZM58.8041 1.03899C55.7364 3.11697 52.6495 5.17571 49.5818 7.25369C48.3355 11.121 47.0893 15.0076 45.843 18.8942C48.9299 16.8162 51.9976 14.7383 55.0845 12.6795C56.3307 8.79293 57.577 4.92558 58.8232 1.03899H58.8041ZM128.019 224.691C115.537 224.691 102.883 221.94 102.768 221.92L102.346 223.806C102.481 223.825 115.327 226.615 128.019 226.615C140.712 226.615 153.558 223.825 153.692 223.806L153.27 221.92C153.136 221.94 140.482 224.691 128.019 224.691Z" fill="var(--fill-0, white)"/>
<path id="Vector_2" d="M103.196 75C106.687 75 109.915 75.275 112.865 76.089C115.82 76.6335 118.24 77.7225 120.387 79.081C122.54 80.4413 124.151 82.3462 125.222 84.7955C126.298 87.243 126.839 90.2405 126.839 93.502C126.839 97.3135 126.03 100.575 124.151 103.022C122.54 105.475 119.852 107.648 116.629 109.281C121.196 110.645 124.686 113.093 126.839 116.354C128.991 119.616 130.329 123.702 130.329 128.328C130.329 132.139 129.521 135.401 128.177 138.123C126.839 140.846 124.686 143.293 122.266 144.927C119.637 146.676 116.731 147.963 113.674 148.733C110.451 149.552 107.228 150.097 104.005 150.097H68V75H103.196ZM101.044 105.47C103.999 105.47 106.419 104.656 108.298 103.297C110.177 101.939 110.986 99.486 110.986 96.494C110.986 94.8605 110.713 93.227 110.177 92.1435C109.642 91.06 108.834 90.235 107.763 89.421C106.668 88.8019 105.491 88.3444 104.267 88.0625C102.923 87.7875 101.585 87.7875 99.9677 87.7875H84.3881V105.475L101.044 105.47ZM101.852 137.579C103.464 137.579 105.075 137.304 106.419 137.034C107.763 136.759 109.107 136.22 110.177 135.401C111.268 134.6 112.183 133.581 112.865 132.409C113.4 131.05 113.941 129.417 113.941 127.514C113.941 123.702 112.865 120.98 110.718 119.077C108.566 117.443 105.611 116.629 102.12 116.629H84.3881V137.584L101.852 137.579ZM153.704 137.304C155.853 139.482 159.076 140.571 163.373 140.571C166.329 140.571 169.016 139.757 171.163 138.398C173.315 136.763 174.659 135.13 175.195 133.498H188.36C186.207 140.026 182.984 144.652 178.691 147.644C174.386 150.366 169.284 152 163.106 152C159.153 152.006 155.235 151.267 151.552 149.822C148.237 148.577 145.282 146.521 142.954 143.838C140.453 141.337 138.608 138.251 137.584 134.856C136.24 131.32 135.699 127.514 135.699 123.158C135.699 119.077 136.24 115.271 137.584 111.729C138.873 108.317 140.787 105.179 143.227 102.478C145.641 100.03 148.597 97.858 151.82 96.494C155.407 95.0437 159.239 94.3041 163.106 94.316C167.672 94.316 171.704 95.1355 175.195 97.0385C178.691 98.9415 181.373 101.119 183.52 104.386C185.672 107.378 187.289 110.915 188.36 114.726C188.895 118.532 189.163 122.344 188.895 126.694H149.94C149.94 131.05 151.552 135.131 153.704 137.309M170.628 108.742C168.749 106.839 165.793 105.75 162.297 105.75C160.247 105.72 158.22 106.185 156.386 107.109C154.775 107.928 153.704 109.017 152.628 110.106C151.633 111.154 150.978 112.481 150.749 113.912C150.476 115.276 150.208 116.36 150.208 117.449H174.386C173.851 113.368 172.507 110.651 170.628 108.742ZM146.985 80.17H177.074V87.518H146.991L146.985 80.17Z" fill="var(--fill-0, white)"/>
</g>
</svg>
