<svg width="45" height="16" viewBox="0 0 45 16" fill="none" xmlns="http://www.w3.org/2000/svg">
<path d="M16.2225 16H0V0H16.2225C16.9171 0 17.5893 0.133333 18.1943 0.377778C18.7993 0.644444 19.3146 1 19.7852 1.44444C20.2333 1.91111 20.5918 2.42222 20.8607 3.02222C21.1072 3.62222 21.2416 4.28889 21.2416 4.97778V11.0222C21.2416 11.7111 21.1072 12.3556 20.8607 12.9556C20.5918 13.5556 20.2333 14.0889 19.7852 14.5333C19.3146 15 18.7993 15.3556 18.1943 15.6C17.5893 15.8667 16.9171 16 16.2225 16ZM17.5445 9.73333V6.31111C17.5445 5.93333 17.4773 5.57778 17.3429 5.24444C17.2084 4.91111 17.0292 4.64444 16.7827 4.4C16.5362 4.17778 16.2673 4 15.9536 3.86667C15.6175 3.73333 15.2814 3.66667 14.9005 3.66667H3.69712V12.3333H14.9005C15.2814 12.3333 15.6175 12.2667 15.9536 12.1333C16.2673 12.0222 16.5362 11.8444 16.7827 11.6C17.0292 11.3556 17.2084 11.0889 17.3429 10.7556C17.4773 10.4444 17.5445 10.1111 17.5445 9.73333Z" fill="white"/>
<path d="M41.3029 5.6C41.3029 5.35556 41.2581 5.13333 41.146 4.88889C41.034 4.66667 40.8996 4.46667 40.6979 4.26667C40.4962 4.08889 40.2274 3.93333 39.9137 3.82222C39.6 3.71111 39.2191 3.66667 38.7933 3.66667H28.5534C28.0381 3.66667 27.5899 3.8 27.209 4.04444C26.8281 4.31111 26.6264 4.71111 26.6264 5.22222C26.6264 5.6 26.8057 5.86667 27.1418 6.06667C27.4779 6.26667 27.9708 6.37778 28.6206 6.37778H39.9137C40.6307 6.37778 41.3029 6.48889 41.9079 6.68889C42.5128 6.88889 43.0506 7.2 43.5212 7.57778C43.9917 7.97778 44.3502 8.46667 44.6191 9.04444C44.8656 9.62222 45 10.2889 45 11.0222C45 11.7111 44.8656 12.3556 44.6191 12.9556C44.3502 13.5556 43.9917 14.0889 43.5436 14.5333C43.073 15 42.5577 15.3556 41.9527 15.6C41.3477 15.8667 40.6755 16 39.9809 16H28.2621C27.4779 16 26.7833 15.8222 26.1559 15.4889C25.5061 15.1556 24.9683 14.7333 24.4978 14.2C24.0273 13.6667 23.6687 13.0667 23.4223 12.4C23.1758 11.7333 23.0414 11.0667 23.0414 10.4H26.7385C26.7385 10.6222 26.7833 10.8444 26.8953 11.0667C26.9849 11.3111 27.1418 11.5111 27.3435 11.6889C27.5451 11.8889 27.7916 12.0444 28.1277 12.1556C28.4414 12.2667 28.8223 12.3333 29.2704 12.3333H39.2863C39.5776 12.3333 39.8464 12.2889 40.0929 12.2C40.3394 12.1333 40.5635 12.0222 40.7651 11.8889C40.9444 11.7556 41.1012 11.6 41.2133 11.4C41.3253 11.2222 41.3701 11.0222 41.3701 10.8222C41.3701 10.3556 41.1908 10.0667 40.8099 9.93333C40.429 9.8 39.9361 9.73333 39.2863 9.73333H28.2397C27.5451 9.73333 26.8953 9.62222 26.2679 9.4C25.6181 9.2 25.0804 8.88889 24.6098 8.48889C24.1393 8.08889 23.7584 7.6 23.4671 7C23.1758 6.4 23.0414 5.73333 23.0414 4.97778C23.0414 4.28889 23.1758 3.62222 23.4447 3.02222C23.6911 2.42222 24.0497 1.91111 24.5202 1.44444C24.9683 1 25.5061 0.644444 26.1111 0.377778C26.7161 0.133333 27.3659 0 28.0605 0H39.7792C40.5635 0 41.2581 0.155555 41.9079 0.488889C42.5577 0.822222 43.0954 1.26667 43.566 1.8C44.0141 2.33333 44.3726 2.93333 44.6191 3.6C44.8656 4.26667 45 4.93333 45 5.6H41.3029Z" fill="white"/>
</svg>
