<svg width="20" height="7" viewBox="0 0 20 7" fill="none" xmlns="http://www.w3.org/2000/svg">
<path d="M7.21001 7H0V0H7.21001C7.51872 0 7.81748 0.0583332 8.08636 0.165278C8.35524 0.281944 8.58429 0.4375 8.79342 0.631944C8.99259 0.836111 9.15193 1.05972 9.27143 1.32222C9.38097 1.58472 9.44073 1.87639 9.44073 2.17778V4.82222C9.44073 5.12361 9.38097 5.40556 9.27143 5.66806C9.15193 5.93056 8.99259 6.16389 8.79342 6.35833C8.58429 6.5625 8.35524 6.71806 8.08636 6.825C7.81748 6.94167 7.51872 7 7.21001 7ZM7.79756 4.25833V2.76111C7.79756 2.59583 7.76769 2.44028 7.70793 2.29444C7.64818 2.14861 7.56851 2.03194 7.45897 1.925C7.34943 1.82778 7.22992 1.75 7.0905 1.69167C6.94112 1.63333 6.79175 1.60417 6.62245 1.60417H1.64316V5.39583H6.62245C6.79175 5.39583 6.94112 5.36667 7.0905 5.30833C7.22992 5.25972 7.34943 5.18194 7.45897 5.075C7.56851 4.96806 7.64818 4.85139 7.70793 4.70556C7.76769 4.56944 7.79756 4.42361 7.79756 4.25833Z" fill="white"/>
<path d="M18.3568 2.45C18.3568 2.34306 18.3369 2.24583 18.2871 2.13889C18.2373 2.04167 18.1776 1.95417 18.088 1.86667C17.9983 1.78889 17.8788 1.72083 17.7394 1.67222C17.6 1.62361 17.4307 1.60417 17.2415 1.60417H12.6904C12.4614 1.60417 12.2622 1.6625 12.0929 1.76944C11.9236 1.88611 11.834 2.06111 11.834 2.28472C11.834 2.45 11.9136 2.56667 12.063 2.65417C12.2124 2.74167 12.4315 2.79028 12.7203 2.79028H17.7394C18.0581 2.79028 18.3568 2.83889 18.6257 2.92639C18.8946 3.01389 19.1336 3.15 19.3427 3.31528C19.5519 3.49028 19.7112 3.70417 19.8307 3.95694C19.9403 4.20972 20 4.50139 20 4.82222C20 5.12361 19.9403 5.40556 19.8307 5.66806C19.7112 5.93056 19.5519 6.16389 19.3527 6.35833C19.1436 6.5625 18.9145 6.71806 18.6456 6.825C18.3768 6.94167 18.078 7 17.7693 7H12.5609C12.2124 7 11.9037 6.92222 11.6248 6.77639C11.336 6.63056 11.097 6.44583 10.8879 6.2125C10.6788 5.97917 10.5194 5.71667 10.4099 5.425C10.3004 5.13333 10.2406 4.84167 10.2406 4.55H11.8838C11.8838 4.64722 11.9037 4.74444 11.9535 4.84167C11.9933 4.94861 12.063 5.03611 12.1526 5.11389C12.2423 5.20139 12.3518 5.26944 12.5012 5.31806C12.6406 5.36667 12.8099 5.39583 13.0091 5.39583H17.4606C17.59 5.39583 17.7095 5.37639 17.8191 5.3375C17.9286 5.30833 18.0282 5.25972 18.1178 5.20139C18.1975 5.14306 18.2672 5.075 18.317 4.9875C18.3668 4.90972 18.3867 4.82222 18.3867 4.73472C18.3867 4.53056 18.307 4.40417 18.1377 4.34583C17.9685 4.2875 17.7494 4.25833 17.4606 4.25833H12.551C12.2423 4.25833 11.9535 4.20972 11.6746 4.1125C11.3858 4.025 11.1468 3.88889 10.9377 3.71389C10.7286 3.53889 10.5593 3.325 10.4298 3.0625C10.3004 2.8 10.2406 2.50833 10.2406 2.17778C10.2406 1.87639 10.3004 1.58472 10.4199 1.32222C10.5294 1.05972 10.6887 0.836111 10.8979 0.631944C11.097 0.4375 11.336 0.281944 11.6049 0.165278C11.8738 0.0583332 12.1626 0 12.4713 0H17.6797C18.0282 0 18.3369 0.0680553 18.6257 0.213889C18.9145 0.359722 19.1535 0.554166 19.3627 0.7875C19.5618 1.02083 19.7212 1.28333 19.8307 1.575C19.9403 1.86667 20 2.15833 20 2.45H18.3568Z" fill="white"/>
</svg>
