<svg preserveAspectRatio="none" width="100%" height="100%" overflow="visible" style="display: block;" viewBox="0 0 12 18.7178" fill="none" xmlns="http://www.w3.org/2000/svg">
<path id="Vector" d="M0.773621 0.772744C1.01884 0.527642 1.30994 0.333246 1.63029 0.200657C1.95064 0.0680689 2.29398 -0.000114919 2.64068 1.4539e-07H5.28049V5.27961H2.64068C2.11845 5.27979 1.6079 5.12506 1.17363 4.835C0.739352 4.54495 0.400866 4.13261 0.200993 3.65014C0.0011205 3.16767 -0.0511577 2.63675 0.0507724 2.12457C0.152702 1.61238 0.40426 1.14193 0.773621 0.772744ZM9.36019 5.27961H6.72039V1.4539e-07H9.36019C10.0603 1.4539e-07 10.7318 0.278122 11.2268 0.773182C11.7219 1.26824 12 1.93969 12 2.63981C12 3.33993 11.7219 4.01137 11.2268 4.50643C10.7318 5.00149 10.0603 5.27961 9.36019 5.27961ZM9.36019 6.71951C8.66007 6.71951 7.98863 6.99763 7.49357 7.49269C6.99851 7.98775 6.72039 8.65919 6.72039 9.35931C6.72039 10.0594 6.99851 10.7309 7.49357 11.2259C7.98863 11.721 8.66007 11.9991 9.36019 11.9991C10.0603 11.9991 10.7318 11.721 11.2268 11.2259C11.7219 10.7309 12 10.0594 12 9.35931C12 8.65919 11.7219 7.98775 11.2268 7.49269C10.7318 6.99763 10.0603 6.71951 9.36019 6.71951ZM0.773621 14.2127C1.01876 13.9674 1.30982 13.7729 1.63018 13.6401C1.95054 13.5074 2.29391 13.439 2.64068 13.439H5.28049V16.0788C5.28035 16.5129 5.17317 16.9402 4.96846 17.3229C4.76375 17.7057 4.46781 18.0321 4.10686 18.2731C3.74591 18.5142 3.33109 18.6626 2.89912 18.7051C2.46715 18.7476 2.03136 18.6829 1.63036 18.5168C1.22935 18.3506 0.875493 18.0882 0.600124 17.7527C0.324754 17.4171 0.136369 17.0189 0.0516489 16.5932C-0.0330708 16.1675 -0.0115105 15.7275 0.114421 15.3121C0.240353 14.8967 0.466769 14.5197 0.773621 14.2127ZM2.64068 6.71951C1.94056 6.71951 1.26912 6.99763 0.774059 7.49269C0.278999 7.98775 0.000877476 8.65919 0.000877476 9.35931C0.000877476 10.0594 0.278999 10.7309 0.774059 11.2259C1.26912 11.721 1.94056 11.9991 2.64068 11.9991H5.28049V6.71951H2.64068Z" fill="var(--fill-0, white)"/>
</svg>
