<svg width="75" height="12" viewBox="0 0 75 12" fill="none" xmlns="http://www.w3.org/2000/svg">
<path d="M0 0H14.8036V2.75H2.77252V4.63333H14.4003V7.36667H2.77252V12H0V0Z" fill="white"/>
<path d="M16.7345 0H19.507V12H16.7345V0Z" fill="white"/>
<path d="M34.6132 8.78333V0H37.3857V12H33.9075L24.5313 3.23333V12H21.7588V0H25.2538L34.6132 8.78333Z" fill="white"/>
<path d="M51.2361 12H39.0706V0H51.2361C51.757 0 52.2611 0.0999997 52.7148 0.283334C53.1685 0.483333 53.5549 0.75 53.9078 1.08333C54.2439 1.43333 54.5127 1.81667 54.7143 2.26667C54.8992 2.71667 55 3.21667 55 3.73333V8.26667C55 8.78333 54.8992 9.26667 54.7143 9.71667C54.5127 10.1667 54.2439 10.5667 53.9078 10.9C53.5549 11.25 53.1685 11.5167 52.7148 11.7C52.2611 11.9 51.757 12 51.2361 12ZM52.2275 7.3V4.73333C52.2275 4.45 52.1771 4.18333 52.0763 3.93333C51.9754 3.68333 51.841 3.48333 51.6562 3.3C51.4713 3.13333 51.2697 3 51.0345 2.9C50.7824 2.8 50.5304 2.75 50.2447 2.75H41.8431V9.25H50.2447C50.5304 9.25 50.7824 9.2 51.0345 9.1C51.2697 9.01667 51.4713 8.88333 51.6562 8.7C51.841 8.51667 51.9754 8.31667 52.0763 8.06667C52.1771 7.83333 52.2275 7.58333 52.2275 7.3Z" fill="white"/>
<path d="M67.2271 2.07861C67.5876 1.02363 69.0452 0.99168 69.4726 1.98276L69.5088 2.07921L69.9953 3.50192C70.1067 3.8282 70.2869 4.12678 70.5236 4.37751C70.7603 4.62824 71.048 4.8253 71.3673 4.95538L71.4981 5.00421L72.9207 5.49011C73.9756 5.85061 74.0076 7.30828 73.0172 7.7357L72.9207 7.77187L71.4981 8.25837C71.1717 8.36979 70.873 8.54992 70.6222 8.78661C70.3714 9.02331 70.1742 9.31106 70.0441 9.63044L69.9953 9.76066L69.5094 11.184C69.1489 12.239 67.6913 12.2709 67.2645 11.2804L67.2271 11.184L66.7413 9.76126C66.6299 9.43487 66.4497 9.13618 66.2131 8.88534C65.9764 8.6345 65.6886 8.43735 65.3693 8.3072L65.2391 8.25837L63.8164 7.77247C62.7609 7.41197 62.729 5.9543 63.72 5.52748L63.8164 5.49011L65.2391 5.00421C65.5653 4.89272 65.8639 4.71255 66.1146 4.47586C66.3653 4.23917 66.5624 3.95146 66.6925 3.63214L66.7413 3.50192L67.2271 2.07861ZM73.1908 1.08926e-07C73.3035 -1.42255e-07 73.4141 0.0316364 73.5098 0.0913139C73.6054 0.150991 73.6825 0.236317 73.7321 0.337593L73.761 0.408126L73.972 1.02664L74.5911 1.23764C74.7041 1.27604 74.8032 1.34713 74.8758 1.44189C74.9483 1.53666 74.9912 1.65084 74.9988 1.76996C75.0064 1.88909 74.9785 2.00779 74.9186 2.11103C74.8587 2.21427 74.7694 2.2974 74.6622 2.34989L74.5911 2.37883L73.9726 2.58982L73.7616 3.20894C73.7232 3.32193 73.652 3.42096 73.5572 3.49348C73.4624 3.566 73.3482 3.60874 73.2291 3.6163C73.11 3.62385 72.9913 3.59587 72.8881 3.53591C72.7849 3.47595 72.7019 3.3867 72.6494 3.27947L72.6205 3.20894L72.4095 2.59042L71.7904 2.37943C71.6774 2.34103 71.5783 2.26994 71.5058 2.17517C71.4332 2.08041 71.3904 1.96623 71.3828 1.8471C71.3752 1.72798 71.4031 1.60928 71.463 1.50603C71.5229 1.40279 71.6121 1.31966 71.7193 1.26718L71.7904 1.23824L72.4089 1.02725L72.6199 0.408126C72.6606 0.289019 72.7375 0.185621 72.8398 0.11243C72.9422 0.0392387 73.0649 -7.55252e-05 73.1908 1.08926e-07Z" fill="white"/>
</svg>
