<svg preserveAspectRatio="none" width="100%" height="100%" overflow="visible" style="display: block;" viewBox="0 0 21.3333 21.3333" fill="none" xmlns="http://www.w3.org/2000/svg">
<path id="Vector" d="M12.7092 11.9317L6.7762 15.3376L2.69122 12.8075C1.91227 12.3815 1.30235 11.7019 0.962704 10.8813C0.623054 10.0607 0.574098 9.1486 0.823963 8.29635C1.07383 7.4441 1.60749 6.70297 2.33636 6.19599C3.06523 5.68901 3.94547 5.44666 4.83097 5.50917M10.6667 13.0994L4.83097 9.69356V4.828C4.76842 3.92417 5.02295 3.02682 5.55069 2.2906C6.07843 1.55438 6.84633 1.0254 7.72204 0.794831C8.59776 0.564262 9.52643 0.646545 10.348 1.0275C11.1696 1.40845 11.8326 2.06422 12.2229 2.88177M8.62417 11.9317V5.02262L12.9037 2.49253C13.6745 2.01871 14.5863 1.82848 15.4821 1.95456C16.378 2.08064 17.2019 2.51514 17.8122 3.18333C18.4225 3.85151 18.7809 4.7116 18.8259 5.61562C18.8708 6.51964 18.5995 7.41108 18.0585 8.13658M8.62417 9.40162L14.5571 5.99573L18.6421 8.52582C19.4211 8.95179 20.031 9.63148 20.3706 10.4521C20.7103 11.2726 20.7592 12.1847 20.5094 13.037C20.2595 13.8892 19.7258 14.6304 18.997 15.1373C18.2681 15.6443 17.3879 15.8867 16.5024 15.8242M10.6667 8.23389L16.5024 11.6398V16.5053C16.5649 17.4092 16.3104 18.3065 15.7826 19.0427C15.2549 19.779 14.487 20.3079 13.6113 20.5385C12.7356 20.7691 11.8069 20.6868 10.9853 20.3058C10.1637 19.9249 9.50069 19.2691 9.11048 18.4516M12.7092 9.40162V16.3107L8.42965 18.8408C7.65882 19.3146 6.74705 19.5049 5.85119 19.3788C4.95533 19.2527 4.13139 18.8182 3.52112 18.15C2.91085 17.4818 2.5524 16.6217 2.50744 15.7177C2.46249 14.8137 2.73383 13.9223 3.27479 13.1968" stroke="var(--stroke-0, white)" stroke-width="1.33333" stroke-linecap="round" stroke-linejoin="round"/>
</svg>
