<svg preserveAspectRatio="none" width="100%" height="100%" overflow="visible" style="display: block;" viewBox="0 0 12 12" fill="none" xmlns="http://www.w3.org/2000/svg">
<path id="Vector" d="M4.22715 2.07861C4.58763 1.02363 6.04523 0.991679 6.47262 1.98276L6.50879 2.07921L6.99526 3.50192C7.10675 3.8282 7.28691 4.12678 7.52358 4.37751C7.76026 4.62824 8.04796 4.8253 8.36726 4.95538L8.49807 5.00421L9.92071 5.49011C10.9756 5.85061 11.0076 7.30828 10.0172 7.7357L9.92071 7.77187L8.49807 8.25837C8.1717 8.36979 7.87302 8.54992 7.6222 8.78662C7.37137 9.02331 7.17423 9.31106 7.04409 9.63044L6.99526 9.76066L6.50939 11.184C6.14891 12.239 4.69131 12.2709 4.26452 11.2804L4.22715 11.184L3.74128 9.76126C3.62987 9.43487 3.44974 9.13618 3.21306 8.88534C2.97638 8.6345 2.68865 8.43735 2.36928 8.3072L2.23907 8.25837L0.816436 7.77248C-0.239089 7.41197 -0.271038 5.9543 0.719986 5.52748L0.816436 5.49011L2.23907 5.00421C2.56533 4.89272 2.86389 4.71255 3.11461 4.47586C3.36533 4.23917 3.56237 3.95146 3.69245 3.63214L3.74128 3.50192L4.22715 2.07861ZM10.1908 1.08926e-07C10.3035 -1.42254e-07 10.4141 0.0316363 10.5097 0.0913138C10.6054 0.150991 10.6825 0.236317 10.7321 0.337593L10.761 0.408126L10.972 1.02664L11.5911 1.23764C11.7041 1.27604 11.8032 1.34713 11.8758 1.44189C11.9483 1.53666 11.9912 1.65084 11.9988 1.76996C12.0064 1.88909 11.9785 2.00779 11.9186 2.11103C11.8586 2.21427 11.7694 2.2974 11.6622 2.34989L11.5911 2.37882L10.9726 2.58982L10.7616 3.20894C10.7232 3.32193 10.652 3.42096 10.5572 3.49348C10.4624 3.566 10.3482 3.60874 10.2291 3.6163C10.11 3.62385 9.99135 3.59587 9.88815 3.53591C9.78495 3.47595 9.70187 3.3867 9.64944 3.27947L9.62051 3.20894L9.40953 2.59042L8.79044 2.37943C8.67742 2.34103 8.57835 2.26994 8.50577 2.17517C8.4332 2.08041 8.39039 1.96623 8.38277 1.8471C8.37515 1.72798 8.40307 1.60928 8.46298 1.50603C8.52289 1.40279 8.6121 1.31966 8.71931 1.26718L8.79044 1.23824L9.40892 1.02725L9.61991 0.408126C9.66055 0.289019 9.73746 0.185621 9.83983 0.11243C9.94221 0.0392386 10.0649 -7.55252e-05 10.1908 1.08926e-07Z" fill="var(--fill-0, white)"/>
</svg>
