<svg width="129" height="20" viewBox="0 0 129 20" fill="none" xmlns="http://www.w3.org/2000/svg">
<path d="M79.5926 15L76.7991 4.78357H78.0562L80.1912 13.1044H80.291L82.466 4.78357H83.8629L86.0379 13.1044H86.1376L88.2726 4.78357H89.5298L86.7362 15H85.4591L83.2043 6.85878H83.1245L80.8698 15H79.5926ZM90.2731 15H88.9762L92.7274 4.78357H94.0045L97.756 15H96.4588L95.4312 12.1067H91.3007L90.2731 15ZM91.6898 11.0092H95.0422L93.406 6.39983H93.3262L91.6898 11.0092ZM98.9257 15V4.78357H100.163V13.9025H104.912V15H98.9257ZM106.406 15V4.78357H107.643V13.9025H112.392V15H106.406ZM113.886 15V4.78357H120.052V5.88102H115.124V9.33307H119.733V10.4305H115.124V13.9025H120.132V15H113.886ZM121.302 5.88102V4.78357H128.964V5.88102H125.752V15H124.515V5.88102H121.302Z" fill="#48FF91"/>
<path d="M33.5865 4.72888H37.1327V6.70352C38.2946 4.92886 39.6317 4.72888 41.5889 4.72888V8.2185H40.6977C38.3522 8.2185 37.2293 9.31566 37.2293 11.4891V15.1984H33.5865V4.72888Z" fill="#48FF91"/>
<path d="M53.421 15.1984H49.7789V14.2003C48.9834 15.1178 47.8996 15.5165 46.5632 15.5165C44.0253 15.5165 42.5903 14.0206 42.5903 11.2694V4.72888H46.2327V10.4528C46.2327 11.7481 46.872 12.5056 47.9565 12.5056C49.041 12.5056 49.7782 11.7672 49.7782 10.5119V4.72888H53.4205V15.1984H53.421Z" fill="#48FF91"/>
<path d="M54.3112 11.9662H57.7224C57.8779 12.7237 58.401 13.0424 59.6593 13.0424C60.6869 13.0424 61.2874 12.8037 61.2874 12.3649C61.2874 12.0253 60.9965 11.8056 60.1645 11.6265L57.4129 11.0081C55.5719 10.5903 54.6417 9.5331 54.6417 7.83722C54.6417 5.60289 56.2881 4.44666 59.4855 4.44666C62.6826 4.44666 64.2517 5.57337 64.5241 7.98737H61.1338C61.0762 7.34987 60.4165 6.95973 59.3319 6.95973C58.4603 6.95973 57.8995 7.23849 57.8995 7.65815C57.8995 8.01689 58.2667 8.29565 59.0046 8.47656L61.891 9.17499C63.7893 9.63279 64.7012 10.5909 64.7012 12.1459C64.7012 14.3002 62.8212 15.5764 59.626 15.5764C56.4305 15.5764 54.3167 14.2005 54.3167 11.9662H54.3129H54.3112Z" fill="#48FF91"/>
<path d="M74.4005 7.98528V4.72888H65.41V7.98714H68.0929V15.1984H71.7167V7.98528H74.4005Z" fill="#48FF91"/>
<path d="M32.5724 7.98528V4.72888H23.5825V7.98714H26.2653V15.1984H29.8896V7.98528H32.5724Z" fill="#48FF91"/>
<path d="M0 2.88906L8.94159 0V20C2.55465 17.3331 0 12.222 0 9.33358V2.88906Z" fill="#48FF91"/>
<path d="M17.884 2.88906L8.94241 0V20C15.3293 17.3331 17.884 12.222 17.884 9.33358V2.88906Z" fill="url(#paint0_linear_2035_284)"/>
<defs>
<linearGradient id="paint0_linear_2035_284" x1="8.56482" y1="22.5137" x2="15.8037" y2="-3.82368" gradientUnits="userSpaceOnUse">
<stop offset="0.26" stop-color="#48FF91"/>
<stop offset="0.66" stop-color="#0094FF"/>
<stop offset="0.8" stop-color="#0038FF"/>
<stop offset="0.89" stop-color="#0500FF"/>
</linearGradient>
</defs>
</svg>
